<?xml version="1.0" encoding="UTF-8"?>
<svg width="13px" height="12px" viewBox="0 0 13 12" version="1.1" xmlns="http://www.w3.org/2000/svg" xmlns:xlink="http://www.w3.org/1999/xlink">
    <!-- Generator: Sketch 50.2 (55047) - http://www.bohemiancoding.com/sketch -->
    <title>key</title>
    <desc>Created with Sketch.</desc>
    <defs></defs>
    <g id="Symbols" stroke="none" stroke-width="1" fill="none" fill-rule="evenodd" opacity="0.816964286">
        <g id="Card-View" transform="translate(-21.000000, -127.000000)">
            <g id="Card">
                <g id="Group-12" transform="translate(20.000000, 105.000000)">
                    <g id="Group-14" transform="translate(1.000000, 20.000000)" opacity="0.599999964">
                        <g id="key" transform="translate(0.000000, 1.000000)">
                            <path d="M11.9896774,7.80274194 C11.9896774,7.13977419 11.6207097,6.56151613 11.0774839,6.262 L9.64580645,2.51612903 L2.35412903,2.51612903 L0.922419355,6.262 C0.379193548,6.56151613 0.0102580645,7.13977419 0.0102580645,7.80274194 L0.0102580645,10.7945806 L0.808967742,10.7945806 L0.808967742,11.1083226 C0.808967742,11.8846129 1.44051613,12.5161613 2.21680645,12.5161613 L2.37970968,12.5161613 C3.15596774,12.5161613 3.78754839,11.8846129 3.78754839,11.1083226 L3.78754839,10.7945806 L8.21245161,10.7945806 L8.21245161,11.1083226 C8.21245161,11.8846129 8.844,12.5161613 9.62029032,12.5161613 L9.78319355,12.5161613 C10.5594839,12.5161613 11.1910323,11.8846129 11.1910323,11.1083226 L11.1910323,10.7945806 L11.9897419,10.7945806 L11.9897419,7.80274194 L11.9896774,7.80274194 Z M3.02029032,3.48387097 L8.97964516,3.48387097 L9.95832258,6.04445161 L2.04154839,6.04445161 L3.02029032,3.48387097 Z M2.37967742,11.5483871 L2.21677419,11.5483871 C1.97412903,11.5483871 1.77667742,11.3509677 1.77667742,11.1082903 L1.77667742,10.7945484 L2.81974194,10.7945484 L2.81974194,11.1082903 L2.81977419,11.1082903 C2.81977419,11.3509677 2.62235484,11.5483871 2.37967742,11.5483871 Z M6.89106452,9.82683871 L5.10887097,9.82683871 L5.10887097,9.23948387 L6.89106452,9.23948387 L6.89106452,9.82683871 Z M9.78312903,11.5483871 L9.62022581,11.5483871 C9.37758065,11.5483871 9.18012903,11.3509677 9.18012903,11.1082903 L9.18012903,10.7945484 L10.2231935,10.7945484 L10.2231935,11.1082903 L10.2232258,11.1082903 C10.2232258,11.3509677 10.0258065,11.5483871 9.78312903,11.5483871 Z M11.0219355,9.82683871 L7.85880645,9.82683871 L7.85880645,8.27174194 L4.14112903,8.27174194 L4.14112903,9.82683871 L0.978,9.82683871 L0.978,7.80274194 C0.978,7.36683871 1.33264516,7.01222581 1.76854839,7.01222581 L10.2313871,7.01222581 C10.6672903,7.01222581 11.0219355,7.36687097 11.0219355,7.80274194 L11.0219355,9.82683871 Z" id="Shape" fill="#ffffff" fill-rule="nonzero"></path>
                            <rect id="Rectangle-6" fill="#821B24" x="8" y="1" width="4" height="3"></rect>
                            <rect id="Rectangle-path" fill="#ffffff" fill-rule="nonzero" x="2.14706452" y="7.93741935" width="1" height="1"></rect>
                            <rect id="Rectangle-path" fill="#ffffff" fill-rule="nonzero" x="8.98577419" y="7.93741935" width="1" height="1"></rect>
                            <g id="tool" transform="translate(10.242641, 4.242641) rotate(45.000000) translate(-10.242641, -4.242641) translate(7.242641, 1.242641)" fill-rule="nonzero">
                                <path d="M5.8559761,5.46366264 L5.90118357,5.47191342 L5.89359592,5.46254335 L5.8559761,5.46366264 Z M3.49658026,2.16085084 L4.37766546,2.53967883 L4.52114831,3.34760251 L5.39344927,3.50706913 L5.55050493,4.39139304 L6.5031658,4.56526228 L6.4487341,6.44646905 L4.79255543,6.4957447 L1.25269776,2.90593402 L2.74198302,1.39561325 L3.49658026,2.16085084 Z" id="Shape" stroke="#821B24" fill="#ffffff"></path>
                                <path d="M0.108217484,1.65877612 L1.63289552,0.112579957 C1.7789936,-0.0355778252 2.0180597,-0.0355778252 2.16415778,0.112579957 L3.3352452,1.30019616 C3.48071642,1.44772708 3.48071642,1.68474627 3.3352452,1.83227719 L1.81056716,3.37846055 C1.66446908,3.52661834 1.42540299,3.52661834 1.27929211,3.37846055 L0.108217484,2.19085714 C-0.0360767591,2.04454158 -0.0360767591,1.80510448 0.108217484,1.65877612 Z" id="Shape" fill="#ffffff"></path>
                                <path d="M0.835164179,1.50315991 L1.48272921,0.846460554 C1.55944989,0.768652452 1.68383795,0.768652452 1.76055864,0.846460554 C1.83727932,0.924268657 1.83727932,1.05040938 1.76055864,1.12820469 L1.1129936,1.78490405 C1.03627292,1.86271215 0.911884861,1.86271215 0.835164179,1.78490405 C0.758443497,1.70710874 0.758443497,1.58096802 0.835164179,1.50315991 Z" id="Shape" fill="#EBF0F3"></path>
                            </g>
                        </g>
                    </g>
                </g>
            </g>
        </g>
    </g>
</svg>