<?xml version="1.0" encoding="UTF-8"?>
<svg width="40px" height="14px" viewBox="0 0 40 14" version="1.1" xmlns="http://www.w3.org/2000/svg" xmlns:xlink="http://www.w3.org/1999/xlink">
    <defs></defs>
    <g id="Page-1" stroke="none" stroke-width="1" fill="none" fill-rule="evenodd" opacity="0.142131696">
        <g id="Login" transform="translate(-192.000000, -66.000000)" fill="#D8D8D8">
            <g id="Group-12-Copy-2" transform="translate(-5.000000, -91.000000)">
                <g id="Group-7">
                    <path d="M236.993629,166.039843 C236.85805,168.802084 234.575531,171 231.779661,171 L197.973841,171 C196.675386,170.789704 196.675386,169.920548 197.973841,168.392532 C198.822441,167.393903 200.112176,167.109069 201.843043,167.538032 C201.833267,167.427768 201.828276,167.316153 201.828276,167.20339 C201.828276,165.10658 203.553966,163.40678 205.682712,163.40678 C206.504957,163.40678 207.267067,163.660382 207.892824,164.092509 C208.604983,162.037325 210.582148,160.559322 212.909778,160.559322 C213.984138,160.559322 214.983832,160.874203 215.818931,161.415383 C216.862879,158.82866 219.427341,157 222.425416,157 C225.377473,157 227.909127,158.772955 228.982759,161.296811 C229.777348,160.828488 230.706837,160.559322 231.700151,160.559322 C234.627177,160.559322 237,162.896547 237,165.779661 C237,165.866897 236.997828,165.953633 236.993533,166.039819 Z" id="Combined-Shape"></path>
                </g>
            </g>
        </g>
    </g>
</svg>