<?xml version="1.0" encoding="UTF-8"?>
<svg width="360px" height="176px" viewBox="0 0 360 176" version="1.1" xmlns="http://www.w3.org/2000/svg" xmlns:xlink="http://www.w3.org/1999/xlink">
    <!-- Generator: Sketch 50.2 (55047) - http://www.bohemiancoding.com/sketch -->
    <title>path4233</title>
    <desc>Created with Sketch.</desc>
    <defs></defs>
    <g id="Page-1" stroke="none" stroke-width="1" fill="none" fill-rule="evenodd" opacity="0.283426339">
        <g id="Login" transform="translate(0.000000, -39.000000)" fill="#542020" fill-rule="nonzero" stroke="#979797" stroke-width="0.5">
            <g id="Group-12-Copy-2" transform="translate(-5.000000, -91.000000)">
                <g id="Group-7">
                    <g id="top-bg">
                        <g id="Group-8" transform="translate(0.000000, 130.000000)">
                            <g id="dubai" style="mix-blend-mode: overlay;">
                                <path d="M0.40548664,174.635735 C0.182391703,174.415123 0,173.736871 0,173.132499 C0,171.850387 1.27761782,171.475348 6.38968629,171.256789 L10.0409209,171.102874 L10.1990967,142.49573 C10.3546964,114.380602 10.3361481,113.8773 9.1341662,113.236501 C7.57719024,112.406899 7.57492323,111.644507 9.12901389,111.240224 C10.2998244,110.937524 10.3460921,110.413701 10.3460921,97.5161418 C10.3460921,85.8770942 10.4723236,84.0608979 11.3040092,83.7433201 C13.1938242,83.020946 21.9898445,92.8791978 28.8547797,103.413136 C32.4790677,108.974596 33.0678219,109.597951 34.6991972,109.597951 C36.6887609,109.597951 37.0118106,110.249525 35.6004904,111.415687 C34.3161231,112.477187 34.3912437,112.848122 37.1946145,119.293053 C40.7939139,127.568033 43.1295581,137.334962 44.0049868,147.773474 L44.7419214,156.559964 L47.867569,156.739532 C50.7310157,156.903708 51.1007454,156.790837 52.2749048,155.128042 C52.9798951,154.142474 53.3919252,152.908076 53.190573,152.385791 C52.9437774,151.744992 53.3497793,151.197568 54.4382044,150.704014 C56.0366564,149.978562 56.0508768,149.915456 55.9410296,144.028723 C55.870443,140.244468 56.0873551,137.776698 56.5382336,137.235944 C57.010185,136.67005 57.2291066,133.482472 57.1946376,127.687574 C57.1534192,121.029727 57.412065,117.930393 58.290482,114.477055 C60.0224304,107.668371 60.6227773,108.034176 62.7096681,117.171079 C63.0904237,118.837465 63.366742,123.927945 63.3240293,128.483827 C63.2828109,133.094606 63.5002383,136.922983 63.8186509,137.118968 C64.1453072,137.319058 64.2478382,139.552877 64.0572028,142.318728 C63.856778,145.228747 63.9562175,147.166023 64.3050288,147.166023 C64.6249871,147.166023 65.6737394,146.348221 66.6357268,145.348287 C67.5976627,144.348353 68.696547,143.530039 69.0776632,143.530039 C70.3074161,143.530039 72.3868876,146.256898 72.797372,148.40709 C73.394576,151.535668 74.165928,152.270355 75.5467981,151.026209 C76.3244359,150.325383 76.6766477,149.168969 76.6766477,147.317372 C76.6766477,144.166733 77.9845096,141.672285 80.3733257,140.267042 C81.3117155,139.715 82.2514965,138.723788 82.4617622,138.064006 C82.9548381,136.516648 84.0034873,136.523318 84.411344,138.064006 C84.5865225,138.730458 84.9131788,139.27583 85.1380255,139.27583 C85.3626662,139.27583 86.4644357,140.039248 87.5864538,140.971972 C89.3008328,142.397225 89.7027643,143.227852 90.1046444,146.176863 C90.6420301,150.120163 92.1656191,152.424783 93.5038796,151.319161 C93.9552217,150.944634 94.332989,149.78822 94.3435512,148.745703 C94.3641604,146.906932 96.6562162,143.517725 97.8820018,143.517725 C98.197323,143.517725 99.3348496,144.33604 100.409724,145.335461 C101.484599,146.335395 102.496151,147.153709 102.657676,147.153709 C102.818943,147.153709 102.86686,145.140502 102.763814,142.679915 C102.640158,139.728853 102.836461,137.894187 103.341027,137.288788 C103.892633,136.626954 104.070748,133.864181 103.980222,127.371022 C103.880267,120.19089 104.076055,117.634876 104.94865,114.734606 C105.550285,112.734738 106.153362,110.712296 106.288817,110.239777 C106.695334,108.82222 107.689729,110.316734 108.711277,113.887048 C109.385045,116.239894 109.632407,119.763007 109.592683,126.438811 C109.556616,132.6108 109.781772,136.162644 110.267171,137.043037 C110.690691,137.811586 110.923472,140.078753 110.82192,142.444938 C110.633346,146.835619 111.648144,149.003767 114.570997,150.454672 C115.311178,150.824068 116.001742,151.661365 116.105664,152.319608 C116.20974,152.977851 116.582767,154.096299 116.934618,154.805334 C117.420481,155.78372 117.345773,156.442476 116.624965,157.537837 C115.387277,159.419191 116.161257,160.639736 118.427912,160.381672 L120.187477,160.181583 L120.491978,116.552341 C120.831,67.9034207 120.476521,71.8046514 125.302585,63.6825601 C128.676213,58.005151 130.437221,55.9765522 131.604424,56.4223924 C132.909298,56.9200507 137.242698,63.373191 139.578136,68.2948777 L141.486603,72.3171881 L141.892605,107.765851 C142.513612,161.975718 142.512427,161.941344 143.757225,162.182477 C144.72828,162.372305 144.82365,161.284127 144.974303,148.310124 L145.137631,134.23255 L147.267544,133.519411 L149.397405,132.805759 L149.560733,118.364946 C149.662749,109.371696 149.96622,103.633748 150.365987,103.154046 C150.71892,102.733345 151.740829,102.299818 152.636712,102.196695 L154.265666,102.011997 L154.428479,86.6764257 L154.591292,71.3403413 L156.406399,70.7103161 L158.221505,70.080291 L158.23181,55.747732 C158.236653,47.865081 158.442024,41.1365356 158.688304,40.7955627 C158.934069,40.4543846 159.888483,39.6984057 160.808891,39.1151707 C162.396266,38.1093366 162.482361,37.8158208 162.482361,33.4115961 C162.482361,29.6374992 162.704941,28.532236 163.672389,27.5070086 C164.691207,26.4271414 164.910128,25.0698169 165.193608,18.0755117 C165.647011,6.88666523 166.320727,0.492782175 167.04643,0.490216926 C167.38133,0.488985606 167.791866,2.19790317 167.959213,4.2877602 C168.135937,6.49418214 168.710059,8.71573905 169.328439,9.58571759 C170.143997,10.7331022 170.393369,12.3074981 170.393369,16.3089273 C170.393369,20.7642517 170.572669,21.6953858 171.610447,22.6306243 C172.74952,23.657083 172.827577,24.4969455 172.827577,35.7282725 C172.827577,47.7260445 172.827938,47.7294306 174.337306,49.1231304 L175.847087,50.517138 L176.010931,64.743034 C176.168591,78.4301764 176.220629,78.9776005 177.391698,79.1797421 C179.980732,79.6260955 180.130149,80.5824203 180.130149,96.6742271 L180.130149,112.010312 L181.499375,112.010312 C184.613533,112.010312 184.673042,112.271967 184.998462,126.06685 L185.302963,138.966461 L186.824285,139.16142 C189.616321,139.515424 189.866981,140.559993 189.866981,151.808097 C189.866981,157.576829 190.072558,162.29227 190.323475,162.287652 C192.098394,162.236347 192.175885,160.878304 192.238691,128.368391 L192.30258,95.3495325 L202.463086,85.2188513 C210.289081,77.415877 212.805674,75.2384936 213.416171,75.7433346 C214.00575,76.2307319 214.208751,78.838051 214.208751,85.9253208 C214.208751,94.6830808 214.110342,95.5414131 212.991673,96.549556 C211.22067,98.1456539 211.22067,105.200602 212.991673,106.710507 C214.153312,107.700693 214.208957,108.500538 214.212512,124.266558 C214.215552,137.735141 214.384084,141.105365 215.125347,142.52087 C215.62512,143.475142 216.034368,144.634122 216.034368,145.095867 C216.034368,145.718196 216.979611,145.935729 219.685603,145.935729 L223.336889,145.935729 L223.336889,129.959359 C223.336889,114.641744 223.389442,113.916292 224.616156,112.363803 C225.623432,111.088361 226.074619,110.892376 226.738288,111.440826 C227.201996,111.825614 228.008023,111.973885 228.529694,111.774309 C229.285692,111.487001 229.441704,110.579416 229.298109,107.313341 L229.117779,103.214586 L227.17304,103.36337 C223.803946,103.619895 223.33524,102.195669 223.345957,91.71714 C223.350852,86.7087479 223.590176,82.2421364 223.877108,81.7911656 C224.710803,80.4813495 225.968533,81.4935967 235.963856,91.5468074 L245.24409,100.878157 L245.24409,109.697996 C245.24409,117.053078 245.406388,118.651741 246.220298,119.324349 C247.380959,120.283753 248.311465,122.419579 248.83731,125.331649 L249.220126,127.452597 L261.076309,127.452597 L272.932542,127.452597 L273.329785,123.513914 C273.90705,117.787252 274.340668,116.589281 276.640194,114.370341 L278.708125,112.374064 L280.506847,114.090215 C282.275171,115.777123 284.002379,120.170369 284.331148,123.816613 C284.48211,125.491208 284.698507,125.649227 287.078461,125.821099 C289.419309,125.990405 289.72546,125.821099 290.338327,124.306063 C291.511971,121.353974 291.742588,121.076927 294.255163,119.594214 L296.712814,118.144335 L299.579867,119.921026 C301.647591,121.202625 302.446972,122.086609 302.446972,123.090648 C302.446972,123.856631 302.775689,124.810391 303.177208,125.21057 C304.148367,126.177669 308.507323,126.154068 308.792039,125.159265 C310.690149,118.667646 311.242837,117.396308 312.821968,115.889994 L314.617754,114.176408 L316.447235,115.921803 C318.554426,117.931932 319.494516,120.479738 320.023967,125.613827 L320.399055,129.249298 L332.21541,129.249298 L344.031816,129.249298 L344.888439,126.219739 C345.398002,124.417395 346.342987,122.748444 347.220631,122.100975 C348.640504,121.053327 348.751434,121.053327 350.160796,122.100975 C352.412354,123.774543 352.955975,126.735867 352.955975,137.327267 C352.955975,146.351813 353.044079,147.129596 354.133019,147.709855 C354.794988,148.06386 359.322166,148.337315 364.478235,148.337315 C374.686143,148.337315 374.905837,148.260358 377.008288,143.84659 C378.345518,141.040721 379.412715,141.097157 380.928112,144.056941 C382.012879,146.174297 382.167139,147.815031 382.309704,158.751713 L382.46994,171.062856 L387.132058,171.237293 C392.207854,171.427121 393.956444,172.356767 392.510861,174.091389 C391.84034,174.895851 369.292037,175 196.283511,175 C88.7751428,175 0.631209254,174.820433 0.408062794,174.594691 L0.40548664,174.635735 Z M16.8910689,131.07319 L17.0476991,91.0455578 L15.2240912,89.3058059 C14.2211429,88.3489681 13.2762612,87.6902121 13.1243711,87.8415618 C12.972378,87.9903463 12.6616939,92.8083969 12.4333436,98.5437805 C12.0690754,107.702232 12.1417229,109.158268 13.031372,110.510154 C13.9479676,111.903084 13.9551808,112.176027 13.1076261,113.381181 C12.2993321,114.530412 12.1718124,118.287476 12.177583,140.786248 C12.1812927,155.126503 12.3563681,167.896313 12.5665823,169.163546 C12.923122,171.311172 13.0782065,171.455852 14.841893,171.284493 L16.7347994,171.099795 L16.8914296,131.072164 L16.8910689,131.07319 Z M39.3790386,170.919202 C40.1636835,170.421544 41.9825513,160.510961 41.9866216,156.709262 C41.9896615,154.070647 41.5053961,153.920323 39.1451753,155.826303 C38.1991085,156.590747 36.6034902,157.7015 35.5994084,158.295612 C34.0804565,159.193962 34.2082338,158.956933 36.3600952,156.884212 C37.7825444,155.514369 38.9463477,154.13016 38.9463477,153.808991 C38.9463477,153.460117 35.0518727,153.225141 29.2097222,153.225141 L19.4730966,153.225141 L19.4730966,161.001436 C19.4730966,165.278733 19.6544578,168.958839 19.8760071,169.17945 C20.0975563,169.400061 21.2613596,168.881881 22.4623111,168.024575 L24.6458077,166.469008 L22.6680943,168.223125 C19.3198154,171.193171 19.7875419,171.40506 29.6662682,171.394799 C34.6030551,171.394799 38.973861,171.174188 39.3791931,170.917663 L39.3790386,170.919202 Z M25.8627313,165.344403 C26.4685397,164.677951 27.1011401,164.132579 27.2684871,164.132579 C27.4359371,164.132579 27.0773364,164.677951 26.4712704,165.344403 C25.8655136,166.010855 25.2329132,166.556226 25.0655663,166.556226 C24.8981162,166.556226 25.2567169,166.010855 25.8627313,165.344403 Z M27.992644,163.931464 C27.992644,163.762157 29.0880246,162.764275 30.4268003,161.708419 C31.7655761,160.652563 32.8609567,159.925058 32.8609567,160.091799 C32.8609567,160.261106 31.7655761,161.258474 30.4268003,162.314331 C29.0880246,163.370187 27.992644,164.097692 27.992644,163.931464 Z M73.7262301,169.333365 C74.0348533,167.634657 75.3321014,167.467403 75.5640068,169.097362 C75.6964211,170.025469 76.1721852,170.495936 76.9801187,170.495936 C78.0003787,170.495936 78.2272348,170.029061 78.3826799,167.617213 C78.4846956,166.034455 78.8118672,164.739004 79.1100313,164.739004 C79.4078347,164.739004 79.7353669,166.034455 79.8373826,167.617213 C79.9929823,170.030087 80.2196838,170.495936 81.2399439,170.495936 C82.0387577,170.495936 82.5238475,170.029061 82.6514702,169.13225 C82.8719889,167.585917 83.8726702,167.31041 84.3017029,168.675635 C85.2288607,171.630802 85.1748645,171.567697 86.1154184,170.790426 C87.2368697,169.863859 87.3392461,164.728743 86.2601982,163.524102 C85.6138412,162.802241 85.6584086,162.794032 86.5569712,163.472797 C87.1384091,163.90889 87.9599446,164.136171 88.3825885,163.975586 C88.9555251,163.754975 89.0996867,164.478375 88.9492393,166.821986 C88.801368,169.123015 89.0033385,170.17528 89.7027128,170.753487 C90.500187,171.412243 90.7093707,171.38146 90.9694077,170.563658 C91.1404644,170.025982 91.4155976,169.159954 91.5808836,168.638696 C91.9760657,167.390959 93.1065336,168.119489 93.1065336,169.622212 C93.1065336,170.268655 93.5171725,170.798122 94.0193165,170.798122 C94.7259555,170.798122 94.9300384,170.011104 94.9228252,167.314001 C94.9179305,165.39776 94.6585118,163.427649 94.346385,162.93666 C93.9769645,162.354862 94.0197286,161.895682 94.4684947,161.619148 C94.9708447,161.311318 94.9414765,160.935766 94.3618419,160.24007 C93.2420908,158.896393 73.5683118,158.811227 72.4566498,160.142591 C71.8937602,160.817765 71.9512084,161.120464 72.7250851,161.551426 C73.6165374,162.049084 73.6197834,162.174781 72.7611512,162.886381 C71.7847374,163.693409 71.3594143,170.14501 72.2257234,171.00796 C72.7728985,171.552818 73.4650596,170.782218 73.7286001,169.331313 L73.7262301,169.333365 Z M76.5982296,162.466194 C75.841304,161.504738 75.8628407,161.483703 76.8280225,162.235321 C77.4137369,162.691935 77.8929531,163.169585 77.8929531,163.295795 C77.8929531,163.793453 77.3931792,163.475362 76.5982296,162.464141 L76.5982296,162.466194 Z M147.753355,170.677042 C148.762692,169.671978 148.670569,166.253014 147.610636,165.377238 C147.130441,164.98219 145.829689,164.742595 144.720037,164.848797 C142.861651,165.028364 142.687451,165.223323 142.511139,167.356071 C142.406032,168.628948 142.644584,170.06087 143.042084,170.537493 C143.920811,171.59181 146.750561,171.675437 147.753406,170.676016 L147.753355,170.677042 Z M155.598053,170.625737 C155.869064,170.210167 156.090614,169.322591 156.090614,168.656139 C156.090614,167.983018 156.496615,167.444316 157.003448,167.444316 C157.510435,167.444316 157.916282,167.983018 157.916282,168.656139 C157.916282,170.442579 158.726019,171.382999 160.264653,171.382999 C162.145761,171.382999 163.088839,170.270194 163.088839,168.050227 C163.088839,167.016945 162.760122,165.844626 162.358602,165.444448 C161.372348,164.46247 151.41747,164.46247 150.431215,165.444448 C149.308167,166.562896 149.52647,170.009565 150.766115,170.728347 C152.253072,171.590784 155.009247,171.532296 155.598517,170.625737 L155.598053,170.625737 Z M170.203043,170.625737 C170.473539,170.210167 170.695604,169.322591 170.695604,168.656139 C170.695604,167.983018 171.10109,167.444316 171.608438,167.444316 C172.16463,167.444316 172.521221,168.00867 172.521221,168.889577 C172.521221,170.738095 174.009156,171.674924 176.110834,171.149561 C177.647973,170.764774 177.746434,170.545189 177.574244,167.878869 L177.389791,165.020155 L171.699531,164.845718 C168.026966,164.732848 165.707293,164.917545 165.157697,165.374673 C163.926604,166.392051 164.069375,169.974164 165.371002,170.72886 C166.857958,171.591297 169.614083,171.532809 170.203404,170.626251 L170.203043,170.625737 Z M183.656956,167.496647 C183.509084,165.484979 183.246317,165.020155 182.257589,165.020155 C181.286379,165.020155 181.001868,165.487031 180.849154,167.335036 C180.619361,170.111149 181.670329,171.765221 182.977006,170.685251 C183.529591,170.228637 183.773758,169.08351 183.656956,167.496647 Z M190.959734,170.656007 C191.971802,169.647865 191.875763,166.231466 190.810832,165.351073 C190.327031,164.950894 189.300279,164.713352 188.528823,164.822631 C187.342814,164.991938 187.096482,165.432647 186.934493,167.686988 C186.739736,170.396917 187.3508,171.354781 189.286419,171.373764 C189.805205,171.378382 190.558266,171.055673 190.959889,170.656007 L190.959734,170.656007 Z M205.686421,164.94012 C205.686421,159.776273 205.575131,159.196014 204.621491,159.377634 C203.718703,159.552071 203.529511,160.402194 203.379218,164.976033 C203.254017,168.786967 203.425589,170.508249 203.958698,170.837114 C205.387124,171.716481 205.686421,170.69346 205.686421,164.94012 Z M213.59743,168.612017 C213.59743,166.299702 213.420705,165.87387 212.532499,166.041638 C210.619293,166.400772 210.74336,171.382999 212.665429,171.382999 C213.366452,171.382999 213.597327,170.696538 213.597327,168.612017 L213.59743,168.612017 Z M240.003832,170.424622 C240.728711,168.543268 240.390256,163.668269 239.482934,162.91819 C238.702411,162.273287 238.705451,162.011118 239.508696,160.792112 C240.189367,159.757291 240.378354,158.026261 240.246815,154.030629 L240.070091,148.659511 L228.051405,148.495335 L216.03272,148.331159 L216.03272,154.670915 C216.03272,158.582407 216.286213,161.166125 216.694276,161.41752 C217.170864,161.709958 217.170864,162.009066 216.694276,162.483637 C215.981969,163.192672 215.767582,170.311238 216.438206,170.979229 C216.661301,171.19984 221.971991,171.384538 228.239671,171.384538 C238.069708,171.384538 239.686141,171.251145 240.00476,170.426161 L240.003832,170.424622 Z M258.513241,168.137446 C258.723456,164.852901 257.546308,162.90639 255.340296,162.890486 C253.601649,162.890486 252.204086,161.968535 253.087603,161.424702 C254.149649,160.771077 253.876473,158.692199 252.499519,156.948856 L251.237976,155.351732 L252.466853,154.805847 C253.239545,154.462104 253.764308,153.56324 253.880544,152.3822 C254.003684,151.132924 254.540606,150.270487 255.485797,149.803612 C256.267041,149.418824 257.189356,148.820608 257.535385,148.476352 C257.881105,148.132608 259.055779,147.994085 260.145183,148.168522 C261.310532,148.35835 262.303022,148.219827 262.556103,147.793996 C262.841026,147.332251 263.398814,147.624689 264.209994,148.650276 C264.88304,149.501938 265.888152,150.124781 266.443519,150.033971 C267.194623,149.910839 267.504431,150.413628 267.652972,151.989204 C267.762716,153.155879 268.23982,154.538035 268.713008,155.061346 C269.455043,155.881712 269.451179,156.173638 268.687246,157.182294 C267.58491,158.633199 267.533026,160.084616 268.520827,161.844377 C269.744964,164.025352 272.162684,166.516209 272.721555,166.171952 C273.464569,165.715338 273.356422,163.041322 272.57523,162.561108 C272.098641,162.268669 272.098641,161.969561 272.57523,161.49499 C273.522275,160.552005 273.482551,136.721355 272.534011,135.775291 C272.000438,135.243771 272.011103,134.855906 272.580382,134.175602 C272.992051,133.683074 273.240599,132.511268 273.132709,131.574439 L272.936406,129.871627 L261.069868,129.871627 L249.20333,129.871627 L249.007027,131.574439 C248.899344,132.511268 249.147685,133.681535 249.559354,134.175602 C250.126211,134.855906 250.136877,135.243771 249.605725,135.775291 C248.66105,136.715711 248.625705,159.433556 249.564507,161.183569 C250.045217,162.078328 250.045217,162.604204 249.564507,163.082879 C248.834167,163.809871 248.641007,170.314829 249.329562,171.000264 C249.566052,171.236267 251.688237,171.349138 254.045778,171.251658 L258.332086,171.077221 L258.520145,168.134368 L258.513241,168.137446 Z M262.280661,169.360044 C262.280661,168.620226 263.277426,166.992832 264.495741,165.744069 C266.830303,163.350691 266.861371,162.235321 264.56169,163.372239 C263.809093,163.741635 262.645702,164.133605 261.976314,164.236728 C260.65248,164.441948 260.04425,167.247305 260.732237,169.976729 C261.170184,171.713403 262.280557,171.271154 262.280557,169.360044 L262.280661,169.360044 Z M268.353325,170.458996 C268.776845,170.966916 269.410837,171.382999 269.761863,171.382999 C270.112735,171.382999 270.861675,170.967429 271.42575,170.458996 C272.344921,169.630421 272.53128,169.630421 273.221638,170.458996 C273.645158,170.966916 274.33567,171.382999 274.755738,171.382999 C275.175651,171.382999 275.866163,170.967429 276.289838,170.458996 C276.980195,169.630421 277.166554,169.630421 278.085726,170.458996 C278.649852,170.966916 279.398586,171.382999 279.749612,171.382999 C280.100485,171.382999 280.734476,170.967429 281.15815,170.458996 C281.845674,169.634012 282.037701,169.632986 282.944919,170.458996 C283.665933,171.108517 284.150302,171.186501 284.611536,170.725782 C285.072668,170.264037 285.626386,170.305081 286.516499,170.859175 C287.576896,171.518444 287.951623,171.476887 288.935147,170.592389 C289.972925,169.657099 290.182469,169.643247 290.869323,170.469257 C291.292843,170.977177 292.337628,171.39326 293.190696,171.39326 C294.043763,171.39326 295.203239,170.97769 295.767365,170.469257 C296.686537,169.640682 296.872896,169.640682 297.563254,170.469257 C297.986773,170.977177 299.088028,171.39326 300.010188,171.39326 C300.932296,171.39326 302.033396,170.97769 302.45707,170.469257 C303.143924,169.644786 303.353469,169.658639 304.391247,170.592389 C305.374771,171.478426 305.749498,171.519983 306.809895,170.859175 C307.700007,170.305594 308.253623,170.266603 308.714857,170.725782 C309.175989,171.182396 309.660461,171.105439 310.381475,170.458996 C311.288641,169.641195 311.480719,169.642221 312.168243,170.458996 C312.591763,170.966916 313.282224,171.382999 313.702343,171.382999 C314.122256,171.382999 314.812769,170.967429 315.236443,170.458996 C315.926801,169.630421 316.11316,169.630421 317.032331,170.458996 C317.596406,170.966916 318.28867,171.382999 318.570656,171.382999 C318.852487,171.382999 319.544854,170.967429 320.108981,170.458996 C321.028152,169.630421 321.214511,169.630421 321.904869,170.458996 C322.328389,170.966916 323.018901,171.382999 323.438969,171.382999 C323.858882,171.382999 324.549394,170.967429 324.973068,170.458996 C325.662241,169.63196 325.856019,169.636064 326.812752,170.510301 C327.998143,171.578471 328.975536,170.792479 328.380341,169.24512 C328.104178,168.528903 326.306434,168.36524 318.711469,168.36524 C312.266343,168.36524 309.155895,168.590982 308.651433,169.092232 C308.083494,169.657612 307.758898,169.657612 307.190959,169.092232 C306.167299,168.072802 287.159095,168.072802 286.135434,169.092232 C285.567495,169.657612 285.2429,169.657612 284.674961,169.092232 C283.7274,168.148733 265.582259,168.063567 265.001079,168.999883 C264.784167,169.348757 264.773862,170.068052 264.975318,170.59752 C265.311248,171.469191 265.451391,171.465087 266.463356,170.546215 C267.461049,169.646838 267.662813,169.638117 268.350801,170.464127 L268.353325,170.458996 Z M344.31339,167.544873 C344.414375,165.599902 344.220133,163.676478 343.881627,163.270143 C343.205129,162.458498 339.158454,162.690396 338.611073,163.572842 C338.427136,163.870411 337.471177,164.112057 336.486828,164.112057 C334.729943,164.112057 334.697122,164.173623 334.697122,167.343758 C334.697122,169.121475 334.890334,170.768365 335.126825,171.003342 C335.363316,171.239345 337.4855,171.352216 339.843042,171.254737 L344.129401,171.0803 L344.313338,167.544873 L344.31339,167.544873 Z M375.346926,167.61157 C375.446881,165.703538 375.2547,163.632356 374.918769,163.007974 C374.513798,162.254304 374.512252,161.670453 374.915111,161.269248 C375.252072,160.935766 375.442141,158.403352 375.342753,155.571317 L375.164483,150.477246 L364.210779,150.477246 L353.257024,150.477246 L353.075663,155.006963 C352.964888,157.771275 353.185407,160.07846 353.641489,160.927044 C354.215662,161.995727 354.222515,162.483637 353.672403,163.032601 C352.909552,163.792427 352.665848,170.287638 353.373569,170.992568 C353.604392,171.22344 358.601771,171.336311 364.479421,171.243962 L375.165977,171.079787 L375.347854,167.611057 L375.346926,167.61157 Z M380.068501,167.432002 C380.08911,165.438804 379.881988,163.347613 379.610461,162.784284 C379.338934,162.221469 379.344087,161.621201 379.620766,161.450355 C379.898475,161.281049 380.104567,158.331525 380.078806,154.899222 C380.037587,149.078159 379.950513,148.658997 378.815254,148.658997 C377.682467,148.658997 377.59493,149.079698 377.551187,154.718629 C377.525425,158.0514 377.754188,161.107125 378.059719,161.509356 C378.365251,161.909535 378.399256,162.588299 378.134943,163.014131 C377.557369,163.944803 377.160642,169.539611 377.592096,170.66986 C377.760576,171.111083 378.378441,171.378382 378.965186,171.263971 C379.834638,171.094665 380.038515,170.385117 380.067265,167.432002 L380.068501,167.432002 Z M332.766707,168.687435 C333.096455,165.890801 332.390073,164.470679 330.113887,163.35377 C328.925404,162.770432 327.690396,162.293296 327.369458,162.293296 C326.158305,162.293296 326.861441,163.945829 328.915821,165.928767 C330.178651,167.147773 331.045733,168.573538 331.045733,169.430844 C331.045733,171.449695 332.515893,170.814027 332.766707,168.687435 Z M118.998118,167.989175 C118.69104,166.360241 118.849216,165.51884 119.621753,164.668716 C120.524695,163.675452 120.539225,163.485623 119.735619,163.178307 C119.229147,162.983348 117.480351,162.911521 115.849388,163.014131 C112.907368,163.198829 112.882534,163.219351 112.696691,165.448552 C112.398887,169.019379 113.356341,170.170662 116.624398,170.170662 L119.409117,170.170662 L118.997963,167.988662 L118.998118,167.989175 Z M114.793835,167.443803 C114.394015,166.406929 114.907701,164.716943 115.622429,164.716943 C116.337157,164.716943 116.850636,166.406929 116.451074,167.443803 C116.258378,167.941461 115.885506,168.352927 115.622429,168.352927 C115.359146,168.352927 114.986479,167.942487 114.793835,167.443803 Z M140.394468,166.997449 C140.249173,166.243779 140.124487,166.715272 140.117274,168.050741 C140.112121,169.384157 140.229594,170.000843 140.382102,169.421097 C140.534611,168.841863 140.539763,167.751119 140.392407,166.997449 L140.394468,166.997449 Z M244.966175,169.612464 C245.656378,170.724243 246.362038,168.714114 246.415828,165.482413 C246.457047,163.102888 246.346272,162.922808 244.93727,163.03927 C243.495397,163.157272 243.416412,163.357361 243.425223,166.819421 C243.430375,169.09531 243.63183,170.164506 243.957714,169.652482 C244.380718,168.987569 244.573569,168.979874 244.966175,169.601177 L244.966175,169.612464 Z M348.084828,166.535704 C348.084828,164.515827 347.814332,162.900234 347.476289,162.900234 C347.138297,162.900234 346.86775,164.515827 346.86775,166.535704 C346.86775,168.555582 347.138246,170.171688 347.476289,170.171688 C347.81428,170.171688 348.084828,168.555582 348.084828,166.535704 Z M349.742171,164.566619 C349.60718,163.483571 349.496921,164.37166 349.496921,166.535704 C349.496921,168.702314 349.60718,169.588351 349.742171,168.505303 C349.877161,167.422255 349.877161,165.649668 349.742171,164.566619 Z M62.070885,166.500304 C62.070885,164.781587 61.8148153,164.112057 61.1581021,164.112057 C60.5054592,164.112057 60.2452677,164.774405 60.2452677,166.435147 C60.2452677,167.712641 60.4204462,168.93216 60.6342669,169.145076 C61.4454463,169.953129 62.0707304,168.801332 62.0707304,166.500304 L62.070885,166.500304 Z M110.754116,166.500304 C110.754116,164.781587 110.498046,164.112057 109.841333,164.112057 C109.18869,164.112057 108.928499,164.774405 108.928499,166.435147 C108.928499,167.712641 109.103677,168.93216 109.317498,169.145076 C110.128626,169.953129 110.753961,168.801332 110.753961,166.500304 L110.754116,166.500304 Z M58.2001106,168.049714 C58.6473309,166.889709 57.9641348,164.112057 57.2319919,164.112057 C56.4199881,164.112057 55.8418992,166.342798 56.2897893,167.748041 C56.7462838,169.180476 57.7059527,169.331826 58.2001106,168.050741 L58.2001106,168.049714 Z M106.628199,168.254934 C106.99865,167.147773 106.412833,164.110005 105.828303,164.110005 C105.118315,164.110005 104.449855,166.909718 104.888265,168.047149 C105.304571,169.128145 106.296339,169.246147 106.628199,168.252369 L106.628199,168.254934 Z M66.4312832,165.92774 C66.5863677,164.773378 66.9967491,164.410652 68.1563275,164.40347 C69.8163496,164.40347 70.4535871,162.704762 69.4061228,161.09122 C68.9048033,160.319593 68.5853087,160.370385 67.1206105,161.455485 C65.7270143,162.488255 65.3836129,163.25629 65.2292498,165.686094 C65.035523,168.738227 66.0266725,168.937804 66.4312832,165.927227 L66.4312832,165.92774 Z M308.355639,165.542953 C308.656018,164.643577 302.126859,163.506659 296.663197,163.506659 C290.828569,163.506659 284.796659,164.623055 284.796659,165.702512 C284.796659,166.420781 286.716872,166.535191 296.460814,166.397694 C304.514799,166.284823 308.196381,166.018037 308.355639,165.542953 Z M323.989957,162.807885 C323.814778,162.525707 324.378956,162.294322 325.243719,162.294322 C327.329528,162.294322 328.511467,159.616715 327.107515,158.071922 C326.028158,156.884212 325.879256,154.671941 326.83908,154.081421 C327.202833,153.855679 327.359927,153.138435 327.187891,152.483784 C326.95037,151.579277 327.302788,151.144724 328.656247,150.67477 C329.635804,150.336157 330.437246,149.692793 330.437246,149.247979 C330.437246,148.22034 331.864023,147.847353 335.224255,147.996137 C336.811836,148.067964 338.159989,148.493795 338.573564,149.056098 C338.95432,149.574791 339.880859,150.193529 340.632633,150.431071 C341.448707,150.687596 341.999488,151.35097 341.999488,152.073857 C341.999488,153.735625 343.150823,155.741137 343.855659,155.307097 C344.73557,154.765829 344.595633,138.459568 343.703666,137.570965 C343.135727,137.005584 343.135727,136.682363 343.703666,136.116982 C344.105031,135.716803 344.433903,134.816914 344.433903,134.117114 C344.433903,131.606248 343.489691,131.390254 332.495438,131.390254 C326.732582,131.390254 321.584292,131.55443 321.054893,131.75965 C319.939985,132.185482 319.727967,135.634715 320.753998,136.656198 C321.230586,137.128203 321.230586,137.428851 320.753998,137.721802 C320.315537,137.993718 320.092442,141.961645 320.092442,149.485521 C320.092442,156.854968 320.324811,161.073263 320.753998,161.500634 C321.230586,161.97264 321.230586,162.273287 320.753998,162.566238 C320.024122,163.017722 319.852859,165.491135 320.506687,166.142195 C321.050874,166.684489 324.404202,163.475876 323.99042,162.809424 L323.989957,162.807885 Z M277.834551,165.266419 C278.477611,164.230059 276.44858,162.487229 275.592112,163.34043 C275.210326,163.720087 275.063073,164.458366 275.264425,164.980651 C275.685369,166.073447 277.227197,166.244805 277.834602,165.267958 L277.834551,165.266419 Z M281.753963,164.41527 C281.753963,162.713484 281.0482,162.46568 279.950449,163.782679 C279.10444,164.798005 279.592879,165.930306 280.87704,165.930306 C281.406749,165.930306 281.753963,165.330551 281.753963,164.41527 Z M313.718779,165.297715 C314.204126,164.515314 312.85314,162.789928 312.112032,163.246029 C311.815259,163.430727 311.572431,164.10744 311.572431,164.754396 C311.572431,165.995976 313.052689,166.371016 313.718779,165.297715 Z M318.053931,165.020668 C318.160069,164.687186 317.986951,164.005856 317.670084,163.506145 C317.163097,162.706301 316.972204,162.717588 316.086625,163.598494 C315.532907,164.14951 315.274673,164.914467 315.512813,165.298228 C316.013617,166.105256 317.77009,165.912862 318.054086,165.021182 L318.053931,165.020668 Z M52.9427985,163.943777 C52.9427985,161.582722 51.2822096,159.870162 48.9924209,159.870162 C45.9501376,159.870162 43.814712,160.854704 43.814712,162.257895 C43.814712,163.899655 45.4432535,164.632803 48.5068159,164.369608 C49.9160752,164.246476 51.2329536,164.420913 51.4332753,164.739004 C52.0916372,165.799991 52.9427985,165.352612 52.9427985,163.945829 L52.9427985,163.943777 Z M101.626029,163.584642 C101.626029,163.001304 101.244243,162.003936 100.777135,161.368267 C100.041231,160.366281 100.059264,160.116939 100.912641,159.495635 C101.750303,158.885619 101.780238,158.561372 101.113581,157.320817 C100.682848,156.51892 100.416216,155.468707 100.521632,154.987467 C100.68496,154.241492 98.3290675,154.112204 84.5868831,154.112204 C70.8446988,154.112204 68.488909,154.240466 68.6521856,154.987467 C68.7572927,155.469733 68.5027687,156.496859 68.0863591,157.272077 C67.4898765,158.381804 67.4868881,158.838418 68.0709022,159.421243 C68.6562559,160.004581 68.9361293,159.969693 69.3880898,159.257067 C69.7039262,158.759409 69.9661272,157.881581 69.9712795,157.3044 C69.9867364,155.74165 71.6034276,155.569265 84.5198516,155.757554 C94.2962015,155.901208 96.3940152,156.085906 96.7481849,156.83855 C96.9831301,157.336209 97.4865106,158.348456 97.8663903,159.08263 C98.3074278,159.935832 98.3419483,160.550466 97.9611927,160.784929 C97.633506,160.985019 97.3651222,161.928004 97.3651222,162.877146 C97.3651222,164.269564 97.5866715,164.545071 98.5135202,164.303425 C99.1451416,164.139249 99.8486377,164.305477 100.076936,164.672821 C100.640908,165.581432 101.624896,164.888302 101.624896,163.584129 L101.626029,163.584642 Z M127.037109,126.305418 C127.154067,97.4022447 127.011348,87.3741735 126.48066,86.7354265 C126.08857,86.2634207 125.059499,85.9617474 124.194117,86.0617921 L122.620654,86.24649 L122.462993,125.028437 C122.376435,146.358482 122.442384,164.168493 122.610865,164.606124 C122.799954,165.098652 123.673168,165.329524 124.898438,165.212036 L126.880376,165.022208 L127.037006,126.307983 L127.037109,126.305418 Z M131.484479,164.694882 C132.485572,164.161823 132.661575,163.396866 132.661575,159.580288 C132.661575,157.112006 132.387987,154.923849 132.053036,154.718116 C131.086566,154.123491 131.32146,149.211552 132.357537,148.355272 C133.14651,147.703186 133.27032,143.512082 133.27032,117.451205 C133.27032,90.6812924 133.162122,87.2120497 132.306529,86.5050671 C131.607258,85.92686 131.064359,85.8832508 130.328764,86.3460217 C129.40341,86.926794 129.299024,90.285731 129.134047,124.786277 C129.034608,145.578133 129.108286,163.204985 129.297891,163.956603 C129.689466,165.509092 129.854185,165.565014 131.484788,164.695908 L131.484479,164.694882 Z M136.921349,164.428096 C136.921349,163.935568 137.617013,163.079288 138.467247,162.524681 L140.013146,161.516025 L139.907008,124.341463 C139.793142,84.577539 139.876094,85.6128735 136.802794,86.0469136 L135.400078,86.2470031 L135.242418,125.02895 C135.155859,146.358482 135.216656,164.151562 135.375347,164.568159 C135.779288,165.620424 136.921349,165.51884 136.921349,164.429635 L136.921349,164.428096 Z M213.476866,161.687384 C213.518084,158.864071 213.327964,158.051913 212.631114,158.051913 C211.403113,158.051913 210.827034,159.800387 211.632185,161.084037 C212.098469,161.826933 212.10259,162.32767 211.647642,162.780693 C210.829043,163.595929 211.462159,165.323368 212.579591,165.323368 C213.201835,165.323368 213.439048,164.362426 213.477123,161.687384 L213.476866,161.687384 Z M198.383952,160.569448 C198.383952,158.395656 198.702365,157.34647 199.610459,156.528155 L200.836966,155.423046 L199.602215,154.114256 C198.404819,152.844971 198.372359,152.18365 198.527856,132.250639 L198.688093,111.695299 L205.077779,111.3926 C210.960324,111.115553 211.467465,110.992421 211.467465,109.877564 C211.467465,108.91816 210.960478,108.602635 209.033309,108.363041 L206.599101,108.060341 L206.424438,101.747263 C206.232257,94.7969779 206.393524,94.4511823 209.832381,94.4352778 C211.739044,94.4352778 211.838329,94.3172763 211.657998,92.4564447 C211.483335,90.6551269 211.259724,90.4611941 209.033155,90.1841472 C207.410332,89.9840578 206.598947,89.5782354 206.598947,88.9723236 C206.598947,88.3664118 207.410332,87.9626416 209.033155,87.7605 L211.467311,87.4578006 L211.648672,83.670467 C211.758932,81.3617429 211.585299,79.8831334 211.204028,79.8831334 C210.859854,79.8831334 207.023033,83.423177 202.678195,87.7497259 L194.77847,95.6158054 L194.526007,116.381496 C194.38741,127.802497 194.094244,142.531131 193.874704,149.111507 L193.475915,161.075829 L195.473671,162.288678 C196.572452,162.956156 197.676798,163.502554 197.927818,163.504093 C198.178736,163.505119 198.384313,162.185042 198.384313,160.570475 L198.383952,160.569448 Z M198.514821,101.545635 C198.739977,93.4881879 199.847053,93.5938761 200.078752,101.694419 C200.226624,106.872631 200.114819,107.756616 199.296787,107.756616 C198.479476,107.756616 198.366486,106.859292 198.514821,101.545635 Z M202.453606,107.365159 C201.738105,106.653046 201.97135,95.7481722 202.711736,95.292584 C203.983326,94.510183 204.474908,96.5454516 204.319978,101.950944 C204.177774,106.921884 203.62318,108.529782 202.453554,107.365159 L202.453606,107.365159 Z M169.165368,120.418685 C169.160216,97.744962 169.32509,78.9175737 169.534273,78.5799869 C169.743972,78.2413741 170.612445,78.1387641 171.464585,78.354245 C172.448213,78.6005089 173.198286,78.4517245 173.518759,77.9489357 C174.096951,77.0413506 174.231839,60.477538 173.672813,59.0271462 C173.423441,58.3801904 172.533329,58.0682562 170.934413,58.0682562 C169.631446,58.0682562 168.56533,57.7963398 168.56533,57.4623444 C168.56533,57.128862 169.631446,56.8564326 170.934413,56.8564326 C173.423029,56.8564326 174.042234,56.1976766 174.042234,53.5483388 C174.042234,51.8987298 173.173297,51.1167906 170.695243,50.5364287 C166.808754,49.6261757 166.131174,48.7181802 166.131174,44.4203108 C166.131174,40.1327023 165.701471,39.7666413 162.216399,41.0860515 L160.656486,41.6765718 L160.807449,55.7805671 L160.958411,69.884819 L162.532081,69.7052516 C163.397617,69.6077721 164.430861,69.915602 164.828207,70.3901731 C165.374197,71.0453377 165.490587,80.1191363 165.304795,107.536004 C165.169289,127.489024 165.00287,144.223682 164.934344,144.723392 C164.865819,145.221051 164.830268,146.177889 164.854999,146.84434 C164.88076,147.511305 164.737011,150.951817 164.537101,154.490321 C164.18726,160.686937 164.224356,160.959366 165.550818,161.884395 C166.550726,162.58163 167.236086,162.680648 168.052573,162.24353 C169.129611,161.669427 169.176703,159.900432 169.165317,120.419711 L169.165368,120.418685 Z M153.224642,156.975022 C153.369937,152.861388 153.229795,151.907629 152.43773,151.604929 C151.086692,151.088288 150.968962,151.327882 150.534416,155.467168 C150.053191,160.05332 150.575635,162.447211 152.004524,162.175294 C152.871606,162.011118 153.077595,161.132777 153.224642,156.975022 Z M158.077189,143.597761 C158.23588,125.498391 158.219393,125.216213 156.987424,124.895044 L155.736547,124.571823 L156.978408,123.705795 C158.13742,122.897228 158.22032,122.214872 158.22032,113.481738 L158.22032,104.123197 L155.603617,104.123197 C154.164423,104.123197 152.658249,104.451549 152.256627,104.850702 C151.371872,105.731608 151.242395,122.12868 152.109271,123.493905 C152.462204,124.049538 152.446232,124.65545 152.068052,125.111038 C151.734183,125.511217 151.54432,127.290987 151.646593,129.0646 C151.800132,131.732459 152.042291,132.327596 153.049309,132.511781 C155.73732,133.004309 155.787761,133.291104 155.787761,148.174678 C155.787761,161.382119 155.862985,162.370253 156.852692,162.180938 C157.834721,161.991109 157.930194,160.546361 158.078786,143.600326 L158.077189,143.597761 Z M162.552896,150.427993 C162.760534,144.122611 162.965596,128.158041 163.00939,114.951113 C163.076886,94.4804262 162.956837,90.8290508 162.192904,90.1974865 C161.404859,89.5464263 161.407023,89.347876 162.208361,88.5475183 C162.944059,87.8148832 163.088839,86.1454192 162.952045,79.9729171 L162.782019,72.3079532 L161.224889,72.1283858 C160.368523,72.0309063 158.930823,72.2258652 158.030097,72.5696086 L156.392333,73.1893728 L156.392333,80.7435179 C156.392333,85.1393286 156.647372,88.4541433 157.002521,88.6727025 C157.408007,88.9240969 157.399764,89.4443294 156.976759,90.2292956 C156.627433,90.8783036 156.421546,93.6539029 156.518719,96.3966671 C156.675864,100.831983 156.829918,101.408138 157.912418,101.606688 C160.708524,102.120251 160.65087,101.463034 160.65087,132.728801 C160.65087,156.193647 160.810076,162.344601 161.411557,162.14605 C161.9661,161.961353 162.274362,158.789166 162.549289,150.431071 L162.552896,150.427993 Z M174.042388,136.861931 L174.34689,111.749682 L175.868263,111.390547 L177.389585,111.036543 L177.557035,101.129551 C177.697693,92.8191709 177.572492,91.0532535 176.770072,90.172347 C175.91247,89.2288485 175.910873,89.0857076 176.754615,88.7629993 C177.44389,88.5013439 177.693674,87.5157752 177.693674,85.0639102 C177.693674,81.9127584 177.598872,81.702921 176.020205,81.3586646 C175.099796,81.1585752 173.969689,80.8763978 173.508918,80.7306917 C171.910003,80.2279029 170.999744,81.7726958 170.999744,84.9864397 C170.999744,86.7118262 171.328461,88.451065 171.729981,88.8512438 C172.297971,89.4166247 172.297971,89.7398461 171.729981,90.3052269 C171.178787,90.8541902 170.999744,99.6683857 170.999744,126.259243 C170.999744,145.634056 171.191925,161.677123 171.426355,161.911074 C171.661301,162.141946 172.277207,162.254817 172.795581,162.157338 C173.622578,161.998292 173.775344,158.898958 174.042337,136.864496 L174.042388,136.861931 Z M178.12044,153.454987 C178.28789,141.929836 178.785654,139.118837 180.740028,138.661196 C182.228015,138.312322 182.261041,138.178929 182.430912,131.76632 C182.594756,125.584583 182.534989,125.209031 181.341148,124.898122 L180.078162,124.56977 L181.320023,123.703742 C182.352546,122.983421 182.561936,122.176906 182.561936,118.918014 C182.561936,115.220977 182.469194,114.963939 180.924171,114.378549 C180.023445,114.034806 178.585745,113.839847 177.72938,113.937327 C176.251956,114.106633 176.163078,114.327244 175.992588,118.197179 C175.893664,120.440233 176.099756,122.81001 176.450629,123.462609 C176.874148,124.25014 176.883422,124.77499 176.47639,125.024333 C175.784332,125.450164 175.598282,161.21743 176.284724,161.900813 C177.595574,163.206011 178.00441,161.323119 178.118791,153.453961 L178.12044,153.454987 Z M183.980057,156.960656 C183.923381,154.194292 183.604454,151.60339 183.27213,151.203724 C182.442969,150.207382 184.496576,147.750386 186.158607,147.750386 C187.278255,147.750386 187.430248,147.391251 187.430248,144.732114 C187.430248,142.058612 187.264859,141.672285 185.98245,141.352142 C185.186161,141.152053 183.748461,141.080226 182.787607,141.187966 C181.091364,141.382925 181.035255,141.495796 180.858016,145.226694 C180.757546,147.33892 180.940453,149.384963 181.264018,149.773342 C181.653532,150.240217 181.560791,150.876912 180.99043,151.654182 C180.106912,152.857284 179.779689,159.471522 180.50972,161.366728 C180.758576,162.012658 181.447697,162.293809 182.487485,162.173755 C184.075993,161.989057 184.082742,161.968535 183.980005,156.959117 L183.980057,156.960656 Z M286.013788,159.688029 C286.013788,158.254568 286.31932,156.77801 286.692399,156.406562 C287.191658,155.908904 287.082429,154.978232 286.279699,152.885502 C285.338578,150.432098 285.290353,149.653801 285.928827,147.229128 C287.414495,141.588658 293.834322,134.4193 297.399101,134.4193 C299.312204,134.4193 304.866135,139.631373 306.779135,143.222209 C307.573261,144.712618 308.428853,145.932651 308.68044,145.932651 C308.931873,145.932651 309.137965,144.296535 309.137965,142.296667 C309.137965,139.245047 308.966908,138.657605 308.073034,138.6417 C306.733434,138.6417 303.474033,135.816848 303.93027,135.081648 C304.116783,134.778948 305.365187,134.681469 306.703912,134.861036 C308.987105,135.163736 309.137965,135.091909 309.137965,133.656395 C309.137965,132.814994 308.704656,131.960766 308.175359,131.758624 C306.920618,131.276357 286.405158,131.276357 285.150416,131.758624 C283.7274,132.302457 283.892068,135.026751 285.34775,135.026751 C286.226836,135.026751 286.4269,135.334581 286.173561,136.299628 C285.908733,137.307771 286.078759,137.523765 286.991181,137.337015 C287.624761,137.208752 288.106501,136.642345 288.061728,136.082095 C287.968471,134.915933 290.111419,134.017069 290.963353,134.865654 C291.639027,135.538262 286.324833,139.056244 285.039023,138.787406 C284.332487,138.638622 284.187656,140.624125 284.187656,150.452107 C284.187656,160.575092 284.32007,162.294835 285.10049,162.294835 C285.770342,162.294835 286.013273,161.601192 286.013273,159.689055 L286.013788,159.688029 Z M295.323133,160.411942 C296.232618,158.96155 296.674068,158.971298 298.184622,160.473508 C299.043563,161.328762 300.213086,161.685332 302.159215,161.685332 C305.448346,161.685332 305.999643,160.825973 304.879325,157.446001 C304.17722,155.327619 304.225291,154.964379 305.405427,153.470378 C307.072765,151.359692 307.074105,148.285497 305.409085,144.86089 C304.02095,142.005255 298.631121,136.234984 297.35237,136.234984 C295.928581,136.234984 291.45308,140.585133 289.641838,143.729615 C287.62677,147.228102 287.225766,151.55619 288.732867,153.540666 C289.889303,155.062885 289.896413,156.497885 288.753477,157.443436 C287.724973,158.29356 287.510019,161.474468 288.459795,161.789994 C290.214877,162.372305 294.653024,161.482164 295.32437,160.409377 L295.323133,160.411942 Z M309.138326,157.410088 C309.138326,153.256437 308.521388,152.167232 307.376133,154.297928 C306.848382,155.279905 307.014956,159.51154 307.662602,161.574513 C308.295357,163.589773 309.138171,161.210248 309.138171,157.410088 L309.138326,157.410088 Z M278.064911,142.71275 C277.987626,129.291368 278.139619,125.026898 278.69442,125.026898 C279.248705,125.026898 279.406984,129.292394 279.348402,142.656828 C279.285544,156.9899 279.428263,160.417073 280.11218,160.98194 C280.574858,161.366728 281.133368,161.497556 281.353577,161.279509 C281.573581,161.058898 281.753912,152.229824 281.753912,141.655868 C281.753912,120.624418 281.946093,121.695152 278.174603,121.695152 C275.080488,121.695152 275.059982,121.823415 275.059982,141.460396 C275.059982,151.531563 275.22434,160.198 275.42528,160.719259 C275.708657,161.455485 276.055407,161.52526 276.978547,161.032219 C278.119164,160.424255 278.162701,159.690081 278.065014,142.71275 L278.064911,142.71275 Z M313.6383,160.545848 C314.574526,159.516157 314.647792,157.923138 314.390125,144.206238 C314.232979,135.847118 313.929508,128.725474 313.71543,128.380704 C313.222869,127.587016 313.921007,126.412132 314.726158,126.679431 C315.114127,126.807694 315.30502,132.925299 315.253652,143.583396 C315.18255,158.294073 315.289718,160.382185 316.157572,161.098916 C316.984982,161.782811 317.231159,161.773576 317.70007,161.04248 C318.014876,160.549953 318.193662,152.381687 318.110194,142.296667 L317.962323,124.420473 L314.978467,124.230645 C313.003433,124.107513 311.823606,124.312733 311.488706,124.836556 C310.912832,125.741063 310.767846,159.259632 311.333621,160.727468 C311.816908,161.981361 312.373099,161.937239 313.638609,160.54277 L313.6383,160.545848 Z M344.064276,160.730546 C344.55323,159.4628 344.535197,157.144841 344.033362,156.644618 C343.227232,155.842208 341.999592,157.651734 341.999592,159.642367 C341.999592,161.805385 343.371548,162.528786 344.064379,160.730546 L344.064276,160.730546 Z M63.0646622,160.009198 C65.150471,158.326908 65.8160461,156.560477 65.0851397,154.645776 C62.6002331,148.137739 53.2343676,151.285812 55.4242531,157.892868 C56.0684462,159.836813 56.2550628,159.955841 58.1103058,159.609532 C59.5838659,159.332485 60.196939,159.476139 60.4599128,160.160035 C60.9143464,161.339023 61.4549781,161.307727 63.0646622,160.01125 L63.0646622,160.009198 Z M111.747893,160.009198 C113.833702,158.326908 114.499226,156.560477 113.768371,154.645776 C111.266307,148.093104 101.902502,151.240151 104.107432,157.892868 C104.751677,159.836813 104.938294,159.955841 106.793537,159.609532 C108.267097,159.332485 108.88017,159.476139 109.143144,160.160035 C109.597577,161.339023 110.138209,161.307727 111.747893,160.01125 L111.747893,160.009198 Z M148.483695,157.750753 C148.483695,155.917626 148.209592,154.417981 147.875155,154.417981 C147.212981,154.417981 147.038781,158.575224 147.636088,160.124634 C148.273686,161.77922 148.483798,161.190752 148.483798,157.750753 L148.483695,157.750753 Z M264.032445,159.842457 C265.996557,158.213524 266.143294,154.358981 264.31067,152.534063 C262.64936,150.87999 259.594917,150.521368 257.699486,151.757818 C255.949092,152.899867 255.245235,155.868373 256.157967,158.258672 C256.720908,159.733177 257.045555,159.914797 258.535551,159.58901 C259.716769,159.332485 260.507185,159.506922 261.041118,160.147208 C262.02794,161.331327 262.266492,161.307214 264.032394,159.844509 L264.032445,159.842457 Z M337.516362,160.011763 C339.602171,158.329473 340.267695,156.56253 339.536788,154.648341 C337.051933,148.140304 327.686068,151.288378 329.875902,157.895433 C330.520095,159.838866 330.706763,159.958406 332.562006,159.611584 C334.035566,159.334538 334.648639,159.478192 334.911561,160.1626 C335.365995,161.341588 335.906678,161.310292 337.516362,160.013816 L337.516362,160.011763 Z M244.590263,158.207367 C244.616024,158.790705 245.077156,159.267841 245.619797,159.267841 C246.505272,159.267841 246.594768,157.790771 246.491825,144.876281 C246.428967,136.960949 246.466063,129.529936 246.57014,128.363774 C246.757169,126.308496 246.697402,126.242826 244.641476,126.242826 C242.438865,126.242826 241.674417,127.340239 242.45901,129.376021 C242.756814,130.149187 242.988771,130.17997 243.753322,129.550458 C245.005487,128.51615 246.500326,129.7762 245.363418,130.911066 C244.884253,131.388202 244.590159,134.357221 244.508083,139.546207 L244.382882,147.453844 L244.024281,139.273265 C243.709991,132.099289 243.655891,132.845264 243.583759,145.332896 C243.537388,153.731521 243.716173,159.07596 244.024281,158.361282 C244.471502,157.324922 244.553475,157.30286 244.590056,158.212498 L244.590263,158.207367 Z M348.049689,145.900842 C347.997136,138.549351 348.113578,132.374797 348.30885,132.180351 C348.504123,131.985392 349.078193,132.180351 349.584356,132.58566 C350.334738,133.205938 350.571692,133.172589 350.86759,132.406093 C351.652183,130.370311 350.888199,129.272898 348.685123,129.272898 C346.767177,129.272898 346.567216,129.431943 346.601582,130.939284 C346.622191,131.855591 346.690716,138.604761 346.753575,145.936755 C346.829314,154.77096 347.083322,159.267841 347.506584,159.267841 C347.936287,159.267841 348.114145,154.893066 348.049535,145.900842 L348.049689,145.900842 Z M349.875976,141.998072 C349.541592,134.182271 349.512223,134.539867 349.499343,146.542667 C349.489038,154.262527 349.63897,157.718944 349.862065,155.025945 C350.069188,152.526367 350.075371,146.663747 349.877522,141.998072 L349.875976,141.998072 Z M208.617466,155.78372 C208.456199,154.387198 208.097959,154.086038 206.407384,153.924428 C202.27817,153.529379 201.774686,156.502503 205.883909,157.015039 C206.946779,157.148432 208.039944,157.302347 208.313171,157.353652 C208.586243,157.404957 208.723295,156.70054 208.617672,155.784233 L208.617466,155.78372 Z M213.452031,151.390475 C213.488098,145.814649 213.396902,145.330843 212.326664,145.330843 C211.402856,145.330843 211.163325,145.766936 211.163325,147.451791 C211.163325,148.617953 211.439488,149.572226 211.777016,149.572226 C212.140769,149.572226 212.081002,150.064754 211.630691,150.784563 C211.022924,151.753201 211.022924,152.239059 211.630691,153.20821 C212.081002,153.92648 212.140769,154.420034 211.777016,154.420034 C211.093253,154.420034 210.935284,156.414771 211.568863,157.045822 C212.981677,158.452605 213.415862,157.148432 213.451877,151.390475 L213.452031,151.390475 Z M70.4386454,150.93386 C70.5978517,150.456724 70.1068367,150.176086 69.1198606,150.176086 C67.5840091,150.176086 67.1188072,150.75891 67.9745541,151.611086 C68.600611,152.234441 70.1457367,151.811175 70.4386454,150.93386 Z M88.5590035,151.359692 C88.7748852,151.010818 88.5074804,150.052441 87.9656122,149.228483 C87.1815339,148.036668 86.750904,147.85197 85.8632644,148.325002 C85.2493154,148.653354 84.5740539,148.745703 84.3627062,148.535352 C83.5347303,147.710881 84.0633571,147.211171 85.9561605,147.029551 C87.4646533,146.885897 87.9339255,146.552415 87.9339255,145.627386 C87.9339255,144.349892 86.6250331,144.129794 84.2826909,145.014292 C83.234763,145.40934 83.2559389,145.332383 84.434684,144.456094 C86.2376311,143.115494 86.1719392,141.804139 84.2780538,141.330594 C82.4565068,140.87398 79.8891118,142.359259 79.140739,144.299613 C78.4487325,146.093748 79.1871098,146.708382 81.1406589,145.968051 C82.4417197,145.475523 82.7611113,145.531959 82.7611113,146.250229 C82.7611113,146.742756 82.7714159,147.348668 82.7868728,147.598524 C82.8023297,147.849918 81.9101046,148.189557 80.8091594,148.356298 C79.1695919,148.602562 78.7726066,148.960671 78.6148945,150.325383 L78.4221981,151.991769 L83.2949934,151.991769 C86.0239649,151.991769 88.3405971,151.714722 88.5604461,151.359179 L88.5590035,151.359692 Z M99.6513559,150.93386 C99.8074708,150.461854 99.3226386,150.176086 98.365752,150.176086 C96.7722461,150.176086 95.8759506,150.913851 96.5971192,151.632121 C97.2375511,152.269842 99.3708127,151.780905 99.6513559,150.93386 Z M208.729941,147.752438 C208.909757,145.429862 209.601763,142.667602 210.416292,141.020712 C211.735025,138.353879 211.790155,137.667419 211.632597,125.871378 L211.467723,113.5156 L205.99082,113.5156 L200.513968,113.5156 L200.352185,130.38519 C200.194009,146.88795 200.217195,147.261963 201.423762,147.575949 C202.111956,147.755517 202.826014,148.602049 203.039011,149.491164 C203.62354,151.931742 203.811857,152.073857 206.19954,151.87582 L208.425079,151.691122 L208.730096,147.752438 L208.729941,147.752438 Z M41.7990776,149.795403 C42.286486,148.530735 40.4617446,135.502349 39.563182,133.830319 L38.8824076,132.564112 L37.0664251,133.946782 C36.0676502,134.707634 34.2335831,136.131861 32.9907949,137.111786 C31.093612,138.607839 31.2133517,138.391332 33.7371582,135.762465 C35.3904308,134.040157 36.5321823,132.420458 36.2743093,132.162907 C35.6872553,131.575978 22.9518319,131.151173 20.9507785,131.649858 C19.4905629,132.014123 19.4731481,132.106472 19.4731481,139.177837 C19.4731481,143.115494 19.6534789,146.516502 19.8734824,146.735574 C20.0940012,146.956185 20.7025403,146.79714 21.2264785,146.381569 C21.7503652,145.965999 21.5701375,146.432874 20.8261442,147.377912 C18.2432922,150.714788 18.4280024,150.780458 30.4460185,150.780458 C40.0231286,150.780458 41.4672175,150.657326 41.7991291,149.793351 L41.7990776,149.795403 Z M23.4286265,144.722366 C24.0344349,144.055915 24.6669837,143.510543 24.8343822,143.510543 C25.0018322,143.510543 24.6432316,144.055915 24.0371656,144.722366 C23.4314087,145.389331 22.7988083,145.934703 22.6314614,145.934703 C22.4640114,145.934703 22.822612,145.389331 23.4286265,144.722366 Z M27.9926955,140.783683 C28.7787831,139.95049 29.5588425,139.268647 29.7261895,139.268647 C29.8936395,139.268647 29.3871676,139.95049 28.6012346,140.783683 C27.8151469,141.616876 27.0350875,142.298719 26.8677405,142.298719 C26.7002905,142.298719 27.2067624,141.616876 27.9926955,140.783683 Z M153.352007,142.517791 C153.352007,134.747652 153.155189,134.412118 149.177144,135.391017 L146.962321,135.935876 L146.786112,141.647146 C146.573322,148.540996 146.765503,149.287483 148.464683,148.229575 C149.521472,147.572358 149.818915,147.650342 150.625045,148.796495 C151.166244,149.56607 151.937132,149.981127 152.456021,149.78309 C153.17281,149.511173 153.352162,148.055138 153.352162,142.517791 L153.352007,142.517791 Z M61.9449111,143.5875 C61.7748849,139.755531 61.697085,139.57186 60.2453192,139.57186 C58.7925229,139.57186 58.7159081,139.751427 58.5451606,143.61264 C58.3911066,147.090091 58.5193991,147.686768 59.457995,147.89404 C61.7604584,148.40196 62.130188,147.760647 61.9449111,143.5875 Z M69.0691619,147.146527 C69.2762847,146.813044 69.1716928,146.540615 68.8367928,146.540615 C68.5018928,146.540615 68.0590004,146.812531 67.8521352,147.146527 C67.6455277,147.480009 67.7496043,147.752438 68.0845043,147.752438 C68.4194043,147.752438 68.8622967,147.480522 69.0691619,147.146527 Z M98.5833855,147.146527 C98.5833855,146.813044 98.3257701,146.540615 98.0107579,146.540615 C97.6959519,146.540615 97.2688771,146.812531 97.0620119,147.146527 C96.8548892,147.480009 97.113535,147.752438 97.6346395,147.752438 C98.1564652,147.752438 98.5833855,147.480522 98.5833855,147.146527 Z M108.816436,144.771106 C109.076627,141.144357 108.529968,139.268647 107.213038,139.268647 C105.474958,139.268647 104.668776,140.539471 104.668776,143.279157 C104.668776,146.957211 105.153093,147.850431 107.028534,147.633924 C108.447015,147.469748 108.645637,147.151657 108.816436,144.771106 Z M237.026314,132.603104 L237.026314,119.575231 L231.397314,119.400794 L225.768315,119.226357 L225.768315,132.603104 L225.768315,145.979338 L231.397314,145.804901 L237.026314,145.630465 L237.026314,132.602591 L237.026314,132.603104 Z M60.8538583,130.431877 C60.8538583,125.571757 60.6699209,124.079295 60.0931716,124.269636 C59.5800017,124.438943 59.2748305,126.262322 59.1551939,129.877271 C58.9697108,135.476183 59.1809554,136.845 60.2262557,136.845 C60.6178311,136.845 60.8538583,134.433666 60.8538583,130.431877 Z M107.580603,130.780751 C107.348749,122.680208 106.241673,122.575033 106.016723,130.631967 C105.868337,135.945624 105.980657,136.842948 106.798689,136.842948 C107.614712,136.842948 107.728784,135.958963 107.580603,130.780751 Z M38.002651,129.015347 C38.4385362,128.314008 35.7118833,120.700349 33.34718,116.014665 L31.55124,112.456665 L29.4039642,114.500142 L27.2566883,116.54362 L28.5059684,114.465255 C29.1930802,113.322693 29.6163423,112.163713 29.4465737,111.890258 C29.2770628,111.618341 26.9633674,111.3926 24.3055493,111.3926 L19.4731481,111.3926 L19.4731481,118.058142 C19.4731481,123.686812 19.6205041,124.723685 20.4204515,124.723685 C21.277847,124.723685 21.277847,124.851948 20.4204515,126.070441 C19.8993985,126.811285 19.4731481,127.902029 19.4731481,128.494088 C19.4731481,129.478118 20.2582053,129.571493 28.565323,129.571493 C33.5659986,129.571493 37.81284,129.320099 38.002651,129.015347 Z M24.95,119.041659 C24.95,118.918527 25.4291646,118.438312 26.0149305,117.981185 C26.9801124,117.227515 27.001649,117.24855 26.2447235,118.212057 C25.4497223,119.221226 24.95,119.542396 24.95,119.043711 L24.95,119.041659 Z M290.273562,128.289381 C290.273562,127.572651 284.96416,127.599843 284.518022,128.340686 C284.125931,128.972251 286.800958,129.418091 288.904336,129.071782 C289.657449,128.94865 290.273562,128.604907 290.273562,128.31093 L290.273562,128.289381 Z M298.74339,128.855788 C299.852476,128.16625 299.843201,128.100579 298.486805,127.038053 C296.726416,125.659488 296.19073,125.658975 294.940059,127.034975 C293.129126,129.02766 296.145184,130.471895 298.743184,128.856302 L298.74339,128.855788 Z M308.791936,128.291947 C308.346261,127.57419 303.052935,127.59779 303.052935,128.291947 C303.052935,128.599777 303.669048,128.945059 304.422161,129.053826 C306.49885,129.356525 309.168776,128.874258 308.791936,128.266294 L308.791936,128.291947 Z M294.533336,125.294197 C294.533336,124.32915 294.963553,124.117774 296.931581,124.117774 C299.933367,124.117774 300.524594,123.269702 298.461095,121.92346 C296.306296,120.51719 293.654558,121.381166 293.541259,123.526227 C293.50004,124.351724 293.396994,125.29984 293.317133,125.63281 C293.055396,126.726632 293.306829,127.225829 293.924848,126.844633 C294.259748,126.639413 294.533387,125.941153 294.533387,125.294197 L294.533336,125.294197 Z M299.470123,125.155673 C298.972925,124.663146 298.793161,124.729842 298.793161,125.412198 C298.793161,126.616839 299.611451,127.431562 299.913891,126.528082 C300.042183,126.143294 299.842274,125.528148 299.470277,125.157213 L299.470123,125.155673 Z M349.796012,125.489156 C349.490481,123.909475 347.47634,123.733499 347.47634,125.289066 C347.47634,126.15612 347.867401,126.545525 348.738038,126.545525 C349.608932,126.545525 349.93667,126.217173 349.796012,125.491721 L349.796012,125.489156 Z M241.001165,122.416501 C241.011469,121.853172 241.422624,120.862473 241.913948,120.215517 C242.604615,119.306393 242.807409,117.035121 242.807409,110.208994 L242.807409,101.378381 L234.736113,93.3578732 C230.296884,88.946158 226.450583,85.3368527 226.188743,85.3368527 C225.927006,85.3368527 225.793561,87.1776754 225.892485,89.4273987 L226.072301,93.5174317 L228.374507,93.8201311 C229.640686,93.9894375 230.676661,94.3957729 230.676661,94.7292553 C230.676661,95.0627377 229.640686,95.4716384 228.374507,95.6383795 C226.225376,95.9205569 226.059884,96.0898634 225.885633,98.1769499 C225.699119,100.412308 225.699634,100.412821 228.319789,100.600597 L230.940614,100.790426 L231.115277,107.103503 C231.306943,114.041476 231.141038,114.399584 227.745925,114.415489 C226.176944,114.420619 225.76816,114.677144 225.76816,115.636547 C225.76816,116.762692 226.173647,116.848884 231.499484,116.848884 C238.982542,116.848884 239.15602,116.930972 239.15602,120.448441 C239.15602,122.023504 239.331199,123.486722 239.545019,123.699638 C240.143872,124.296315 240.979267,123.561115 241.000856,122.41804 L241.001165,122.416501 Z M233.450045,112.884548 C233.241377,112.343281 233.074957,109.809328 233.080109,107.253827 C233.090414,102.355227 233.733783,100.297898 234.895216,101.454312 C235.78435,102.339836 235.441309,113.337058 234.514976,113.642323 C234.137827,113.765455 233.658611,113.426842 233.450045,112.884548 Z M237.330557,107.505221 C237.330557,102.143851 237.483581,101.092099 238.264671,101.092099 C239.054571,101.092099 239.171992,102.043293 239.025358,107.253827 C238.905309,111.516758 238.617295,113.493538 238.091244,113.666949 C237.514753,113.856778 237.330557,112.365855 237.330557,107.505221 Z M245.734281,122.452414 C245.621445,121.869076 245.125948,121.39194 244.633027,121.39194 C244.139951,121.39194 243.644608,121.869076 243.531824,122.452414 C243.388074,123.196336 243.716277,123.512888 244.633027,123.512888 C245.549622,123.512888 245.878185,123.194797 245.734281,122.452414 Z M60.8538583,121.088728 C60.8538583,120.755245 60.5797555,120.482816 60.2453192,120.482816 C59.9104192,120.482816 59.6367801,120.754732 59.6367801,121.088728 C59.6367801,121.42221 59.9103677,121.694639 60.2453192,121.694639 C60.5802192,121.694639 60.8538583,121.422723 60.8538583,121.088728 Z M107.407228,121.088728 C107.613836,120.755245 107.340248,120.482816 106.798689,120.482816 C106.25713,120.482816 105.983285,120.754732 106.19015,121.088728 C106.396757,121.42221 106.67086,121.694639 106.798689,121.694639 C106.926466,121.694639 107.200569,121.422723 107.407228,121.088728 Z M316.870343,120.724462 C316.990907,120.360197 316.549354,119.403872 315.889343,118.603514 L314.689319,117.148505 L313.350595,118.4614 C311.496022,120.280674 312.174684,121.830598 314.716266,121.580742 C315.780578,121.478132 316.749882,121.088215 316.870343,120.724462 Z M280.536937,118.434721 C280.536937,117.642572 280.111356,116.642125 279.590921,116.212189 C278.801124,115.55959 278.435516,115.639113 277.376511,116.694456 C275.691861,118.372129 276.313899,119.876391 278.692204,119.876391 C280.22888,119.876391 280.536937,119.635258 280.536937,118.435747 L280.536937,118.434721 Z M28.8726582,108.051106 C28.836592,106.744881 20.8418587,95.0309286 19.985236,95.0309286 C19.1140838,95.0309286 19.3561392,108.818116 20.2335772,109.185459 C20.6519446,109.359896 22.7742318,109.452245 24.9497939,109.385549 C28.4818041,109.282939 28.9017687,109.139285 28.8724521,108.049054 L28.8726582,108.051106 Z M210.408563,105.787018 C211.396467,104.562881 211.294348,98.3175256 210.272542,97.4730456 C208.739164,96.2058126 208.120526,97.4012186 208.120526,101.631314 C208.120526,106.433973 208.836491,107.734555 210.40846,105.787018 L210.408563,105.787018 Z M139.620128,78.9729831 C139.589214,75.2128411 139.228037,73.2714607 138.010289,70.3203983 C136.124081,65.7496377 132.651579,59.8649566 131.595253,59.4483601 C130.493381,59.0122678 128.744069,61.3174005 125.882477,66.9701831 C123.926713,70.8334481 123.229193,73.0611103 122.737251,77.014672 C121.802983,84.5236688 121.391932,84.1881342 131.279932,83.9890709 L139.659852,83.8197645 L139.618633,78.97247 L139.620128,78.9729831 Z M128.097557,81.6998427 C127.877554,81.3458384 128.508712,81.0939309 129.618931,81.0939309 C130.728944,81.0939309 131.360308,81.3453253 131.140253,81.6998427 C130.933645,82.0333251 130.248801,82.3057545 129.618931,82.3057545 C128.989061,82.3057545 128.304423,82.0338382 128.097557,81.6998427 Z M128.097557,78.6697707 C128.30468,78.3362883 128.989061,78.0638588 129.618931,78.0638588 C130.248801,78.0638588 130.933439,78.3357752 131.140253,78.6697707 C131.360257,79.023775 130.729099,79.2756825 129.618931,79.2756825 C128.508918,79.2756825 127.877554,79.0242881 128.097557,78.6697707 Z M127.793571,76.0137119 C127.793571,75.4739835 130.037041,75.2585026 131.150248,75.6904905 C132.069935,76.0496254 131.813814,76.1676268 130.07558,76.2035403 C128.820478,76.2035403 127.793571,76.1419743 127.793571,76.0137119 Z M128.349969,72.5547302 C129.282949,72.1853343 130.393477,72.1802038 131.392665,72.5547302 C132.750298,73.0523885 132.548739,73.1313981 129.923432,73.1396069 C127.364178,73.1396069 127.114188,73.057519 128.349969,72.5639651 L128.349969,72.5547302 Z M128.098021,70.1864923 C127.862045,69.8068355 129.038627,69.6072591 131.256953,69.6518944 C134.15425,69.7083299 134.462667,69.8058094 132.966386,70.1864923 C130.268843,70.8698746 128.522262,70.8698746 128.098021,70.1864923 Z M129.010856,67.1564202 C129.010856,66.8229379 129.969288,66.5505084 131.140717,66.5505084 C132.312197,66.5505084 133.270629,66.8224248 133.270629,67.1564202 C133.270629,67.4899026 132.312197,67.762332 131.140717,67.762332 C129.969288,67.762332 129.010856,67.4904156 129.010856,67.1564202 Z M170.861353,36.4946662 C171.017468,26.1609199 170.95461,25.4510642 169.752216,23.9286916 C168.00208,21.7131373 167.34887,21.9047101 167.34887,24.6334167 C167.34887,26.3326377 166.93617,27.3378561 165.802663,28.3980735 C164.406696,29.7039392 164.273664,30.2294048 164.433488,33.8058749 C164.60403,37.6267106 164.669979,37.7740585 166.28394,37.959013 C167.913718,38.1457631 167.957409,38.2514513 167.957409,41.9996905 C167.957409,46.5614215 168.370625,47.8918622 169.707494,47.6361069 C170.568754,47.4714179 170.71714,46.0384698 170.861353,36.4946662 Z" id="path4233"></path>
                            </g>
                        </g>
                    </g>
                </g>
            </g>
        </g>
    </g>
</svg>