<?xml version="1.0" encoding="UTF-8"?>
<svg width="14px" height="18px" viewBox="0 0 14 18" version="1.1" xmlns="http://www.w3.org/2000/svg" xmlns:xlink="http://www.w3.org/1999/xlink">
    <!-- Generator: Sketch 50.2 (55047) - http://www.bohemiancoding.com/sketch -->
    <title>Shape</title>
    <desc>Created with Sketch.</desc>
    <defs></defs>
    <g id="Page-1" stroke="none" stroke-width="1" fill="none" fill-rule="evenodd">
        <g id="Login" transform="translate(-46.000000, -518.000000)" fill="#ACA8B6" fill-rule="nonzero" stroke="#FFFFFF" stroke-width="0.15">
            <g id="lock" transform="translate(47.000000, 519.000000)">
                <path d="M6.26693806,0 C3.93602792,0 2.04478046,2.0403188 2.04478046,4.5382091 L2.04478046,6.77355837 L0.690898517,6.77355837 C0.307066008,6.77355837 0,7.10360994 0,7.5161744 L0,15.257384 C0,15.6699484 0.307066008,16 0.690898517,16 L11.8499564,16 C12.2337889,16 12.5408549,15.6699484 12.5408549,15.257384 L12.5408549,7.52367557 C12.5408549,7.11111111 12.2337889,6.78105954 11.8499564,6.78105954 L10.4960744,6.78105954 L10.4960744,4.54571027 C10.4960744,2.0403188 8.59784821,0 6.26693806,0 Z M3.42657749,4.54571027 C3.42657749,2.85794655 4.70369293,1.49273324 6.26693806,1.49273324 C7.83018319,1.49273324 9.10729863,2.86544773 9.10729863,4.54571027 L9.10729863,6.78105954 L3.42657749,6.78105954 L3.42657749,4.54571027 Z M11.1590579,8.26629161 L11.1590579,14.5222691 L1.38179703,14.5222691 L1.38179703,8.26629161 L11.1590579,8.26629161 Z" id="Shape"></path>
            </g>
        </g>
    </g>
</svg>