<svg xmlns="http://www.w3.org/2000/svg" height="24" version="1.1" viewBox="-61 1 511 511.99901" width="24">
<g id="surface1">
<path d="M 250.6875 402.347656 C 248.199219 402.347656 245.691406 402.140625 243.234375 401.734375 L 195.222656 393.800781 L 147.226562 401.730469 C 144.761719 402.140625 142.25 402.347656 139.753906 402.347656 C 127.613281 402.347656 115.753906 397.386719 107.226562 388.742188 L 98.402344 379.800781 L 98.402344 496.765625 C 98.402344 502.042969 101.136719 506.949219 105.628906 509.722656 C 108.074219 511.234375 110.851562 512 113.636719 512 C 115.964844 512 118.300781 511.464844 120.449219 510.390625 L 195.222656 473.003906 L 269.996094 510.390625 C 274.71875 512.75 280.324219 512.496094 284.820312 509.722656 C 289.308594 506.949219 292.042969 502.046875 292.042969 496.765625 L 292.042969 379.800781 L 283.214844 388.75 C 274.683594 397.390625 262.828125 402.347656 250.6875 402.347656 Z M 250.6875 402.347656 " style=" stroke:none;fill-rule:nonzero;fill:rgb(0%,0%,0%);fill-opacity:1;" />
<path d="M 195.222656 111.425781 C 154.136719 111.425781 120.710938 144.851562 120.710938 185.9375 C 120.710938 227.023438 154.136719 260.449219 195.222656 260.449219 C 236.308594 260.449219 269.730469 227.023438 269.730469 185.9375 C 269.730469 144.851562 236.308594 111.425781 195.222656 111.425781 Z M 195.222656 111.425781 " style=" stroke:none;fill-rule:nonzero;fill:rgb(0%,0%,0%);fill-opacity:1;" />
<path d="M 388.238281 178.929688 L 363.539062 131.25 L 355.492188 78.15625 C 354.753906 73.265625 351.679688 69.035156 347.257812 66.820312 L 299.25 42.757812 L 261.53125 4.53125 C 258.640625 1.605469 254.722656 0 250.679688 0 C 249.855469 0 249.027344 0.0664062 248.203125 0.203125 L 195.222656 8.957031 L 142.242188 0.203125 C 141.414062 0.0664062 140.585938 0 139.761719 0 C 135.71875 0 131.800781 1.605469 128.914062 4.535156 L 91.195312 42.757812 L 43.1875 66.816406 C 38.765625 69.035156 35.691406 73.261719 34.949219 78.15625 L 26.902344 131.246094 L 2.207031 178.929688 C -0.0703125 183.324219 -0.0703125 188.550781 2.207031 192.941406 L 26.902344 240.628906 L 34.949219 293.71875 C 35.691406 298.613281 38.765625 302.839844 43.1875 305.054688 L 91.195312 329.117188 L 128.914062 367.34375 C 131.800781 370.265625 135.714844 371.878906 139.753906 371.878906 C 140.582031 371.878906 141.414062 371.8125 142.242188 371.671875 L 195.222656 362.917969 L 248.203125 371.671875 C 249.03125 371.8125 249.859375 371.878906 250.6875 371.878906 C 254.726562 371.878906 258.644531 370.269531 261.53125 367.34375 L 299.25 329.117188 L 347.257812 305.054688 C 351.679688 302.839844 354.753906 298.613281 355.492188 293.71875 L 363.539062 240.628906 L 388.238281 192.941406 C 390.515625 188.550781 390.515625 183.324219 388.238281 178.929688 Z M 195.222656 290.917969 C 137.335938 290.917969 90.242188 243.824219 90.242188 185.9375 C 90.242188 128.050781 137.335938 80.960938 195.222656 80.960938 C 253.105469 80.960938 300.199219 128.050781 300.199219 185.9375 C 300.199219 243.824219 253.105469 290.917969 195.222656 290.917969 Z M 195.222656 290.917969 " style=" stroke:none;fill-rule:nonzero;fill:rgb(0%,0%,0%);fill-opacity:1;" />
</g>
</svg>