<?xml version="1.0" encoding="UTF-8"?>
<svg width="14px" height="15px" viewBox="0 0 14 15" version="1.1" xmlns="http://www.w3.org/2000/svg" xmlns:xlink="http://www.w3.org/1999/xlink">
    <!-- Generator: Sketch 51 (57462) - http://www.bohemiancoding.com/sketch -->
    <title>target</title>
    <desc>Created with Sketch.</desc>
    <defs></defs>
    <g id="Symbols" stroke="none" stroke-width="1" fill="none" fill-rule="evenodd" opacity="0.500446429">
        <g id="search-home" transform="translate(-184.000000, -70.000000)" fill-rule="nonzero">
            <g id="search">
                <g id="Group-4" transform="translate(144.000000, 57.200012)">
                    <g id="target" transform="translate(40.000000, 13.000000)">
                        <path d="M7,5.9532081 L6.65107982,7 L7,8.0467919 C7.57814789,8.0467919 8.0467919,7.57811654 8.0467919,7 C8.0467919,6.42188346 7.57814789,5.9532081 7,5.9532081 Z" id="Shape" fill="#263238"></path>
                        <path d="M5.9532081,7 C5.9532081,7.57811654 6.42185211,8.0467919 7,8.0467919 L7,5.95317675 C6.42188346,5.9532081 5.9532081,6.42188346 5.9532081,7 Z" id="Shape" fill="#455A64"></path>
                        <path d="M13.9786858,6.47658838 L12.9087266,6.47658838 C12.6587769,3.61826433 10.3818297,1.34131718 7.52341162,1.09136744 L7.52341162,0.0213141919 L7,0.0213141919 L6.65107982,1.06810609 L7,2.11492934 C9.69797124,2.11492934 11.8850707,4.30206011 11.8850707,7 C11.8850707,9.69793989 9.69797124,11.8850707 7,11.8850707 L6.65107982,12.9318626 L7,13.9786858 L7.52341162,13.9786858 L7.52341162,12.9086326 C10.3817984,12.6586515 12.6587455,10.381767 12.9087266,7.52341162 L13.9786858,7.52341162 L13.9786858,6.47658838 Z" id="Shape" fill="#263238"></path>
                        <path d="M7,2.11492934 L7,0.0213141919 L6.47658838,0.0213141919 L6.47658838,1.09136744 C3.61823298,1.34134853 1.34125448,3.61826433 1.09127339,6.47658838 L0.0213141919,6.47658838 L0.0213141919,7.52338027 L1.09127339,7.52338027 C1.34125448,10.3817043 3.61817028,12.6586515 6.47658838,12.9086012 L6.47658838,13.9786545 L7,13.9786545 L7,11.8850393 C4.30202876,11.8850393 2.11492934,9.69790854 2.11492934,6.99996865 C2.11492934,4.30202876 4.30202876,2.11492934 7,2.11492934 Z" id="Shape" fill="#455A64"></path>
                    </g>
                </g>
            </g>
        </g>
    </g>
</svg>