<?xml version="1.0" encoding="UTF-8"?>
<svg width="12px" height="15px" viewBox="0 0 12 15" version="1.1" xmlns="http://www.w3.org/2000/svg" xmlns:xlink="http://www.w3.org/1999/xlink">
    <!-- Generator: Sketch 50.2 (55047) - http://www.bohemiancoding.com/sketch -->
    <title>maps-and-flags</title>
    <desc>Created with Sketch.</desc>
    <defs></defs>
    <g id="Symbols" stroke="none" stroke-width="1" fill="none" fill-rule="evenodd" opacity="0.816964286">
        <g id="Card-View" transform="translate(-173.000000, -126.000000)" stroke="#000000">
            <g id="Card">
                <g id="Group-12" transform="translate(20.000000, 105.000000)">
                    <g id="Group-13" transform="translate(153.500000, 20.000000)" opacity="0.602120536">
                        <g id="maps-and-flags" transform="translate(0.625000, 2.500000)">
                            <path d="M4.13673352,12.086885 C4.09954152,12.0475604 4.03155771,11.9744267 3.93716019,11.8708924 C3.78081714,11.6994168 3.60686002,11.5043992 3.41965856,11.2892319 C2.88488261,10.6745662 2.35007273,10.0204792 1.84998372,9.35361841 C1.40828139,8.76461536 1.01427685,8.19250013 0.680101281,7.6459732 C-0.0766562331,6.40833526 -0.5,5.35433728 -0.5,4.5 C-0.5,1.73857625 1.73857625,-0.5 4.5,-0.5 C7.26142375,-0.5 9.5,1.73857625 9.5,4.5 C9.5,5.35433728 9.07665623,6.40833526 8.31989872,7.6459732 C7.98572315,8.19250013 7.59171861,8.76461536 7.15001628,9.35361841 C6.64992727,10.0204792 6.11511739,10.6745662 5.58034144,11.2892319 C5.39313998,11.5043992 5.21918286,11.6994168 5.06283981,11.8708924 C4.96844229,11.9744267 4.90045848,12.0475604 4.86326648,12.086885 L4.5,12.4709818 L4.13673352,12.086885 Z" id="Oval-4" fill="#FFFFFF"></path>
                            <circle id="Oval-3" cx="4.58437157" cy="4.640625" r="1.6875"></circle>
                        </g>
                    </g>
                </g>
            </g>
        </g>
    </g>
</svg>