<?xml version="1.0" encoding="UTF-8"?>
<svg width="16px" height="18px" viewBox="0 0 16 18" version="1.1" xmlns="http://www.w3.org/2000/svg" xmlns:xlink="http://www.w3.org/1999/xlink">
    <!-- Generator: Sketch 50.2 (55047) - http://www.bohemiancoding.com/sketch -->
    <title>group</title>
    <desc>Created with Sketch.</desc>
    <defs></defs>
    <g id="Page-1" stroke="none" stroke-width="1" fill="none" fill-rule="evenodd">
        <g id="Login" transform="translate(-45.000000, -479.000000)" fill="#ACA8B6" fill-rule="nonzero">
            <g id="group" transform="translate(45.000000, 479.000000)">
                <path fill="#ACA8B6" d="M15.3302326,17.1255814 C15.6713178,17.1255814 15.944186,16.8527132 15.944186,16.5116279 L15.944186,14.4403101 C15.944186,13.8139535 15.6713178,13.2310078 15.1875969,12.8341085 C13.5317829,11.4697674 11.7581395,10.5023256 11.0325581,10.1302326 L11.0325581,7.79844961 C11.4170543,7.42635659 11.6403101,6.91782946 11.6403101,6.37209302 L11.6403101,3.34573643 C11.6403101,1.50387597 10.1395349,0.00930232558 8.30387597,0.00930232558 L7.65271318,0.00930232558 C5.81085271,0.00930232558 4.31627907,1.51007752 4.31627907,3.34573643 L4.31627907,6.37209302 C4.31627907,6.91782946 4.53953488,7.42635659 4.92403101,7.79844961 L4.92403101,10.1302326 C4.19844961,10.5023256 2.4248062,11.4697674 0.768992248,12.8341085 C0.285271318,13.2310078 0.0124031008,13.8139535 0.0124031008,14.4403101 L0.0124031008,16.5116279 C0.0124031008,16.8527132 0.285271318,17.1255814 0.626356589,17.1255814 C0.96744186,17.1255814 1.24031008,16.8527132 1.24031008,16.5116279 L1.24031008,14.4403101 C1.24031008,14.1860465 1.35193798,13.944186 1.5503876,13.7829457 C3.37984496,12.2821705 5.35813953,11.2837209 5.73643411,11.0976744 C5.99689922,10.9736434 6.15813953,10.7131783 6.15813953,10.427907 L6.15813953,7.51317829 C6.15813953,7.30852713 6.05271318,7.11627907 5.88527132,7.00465116 C5.6744186,6.8620155 5.5503876,6.63255814 5.5503876,6.37829457 L5.5503876,3.35193798 C5.5503876,2.18604651 6.49922481,1.24341085 7.65891473,1.24341085 L8.31007752,1.24341085 C9.47596899,1.24341085 10.4186047,2.19224806 10.4186047,3.35193798 L10.4186047,6.37829457 C10.4186047,6.62635659 10.2945736,6.8620155 10.0837209,7.00465116 C9.91007752,7.11627907 9.81085271,7.30852713 9.81085271,7.51317829 L9.81085271,10.427907 C9.81085271,10.7131783 9.97209302,10.9736434 10.2325581,11.103876 C10.6108527,11.2899225 12.5891473,12.2883721 14.4186047,13.7891473 C14.6170543,13.9503876 14.7286822,14.1922481 14.7286822,14.4465116 L14.7286822,16.5178295 C14.7162791,16.8527132 14.9891473,17.1255814 15.3302326,17.1255814 Z" id="Shape"></path>
            </g>
        </g>
    </g>
</svg>